<svg width="24" height="25" viewBox="0 0 24 25" fill="none" xmlns="http://www.w3.org/2000/svg">
<path d="M6 17.9252L4 16.8252V14.3252M4 10.3252V7.8252M4 7.8252L6 6.7252M4 7.8252L6 8.9252M10 4.4252L12 3.3252L14 4.4252M18 6.7252L20 7.8252M20 7.8252V10.3252M20 7.8252L18 8.9252M20 14.3252V16.8252L18 17.9452M14 20.2252L12 21.3252M12 21.3252L10 20.2252M12 21.3252V18.8252M12 12.3252L14 11.2252M12 12.3252V14.8252M12 12.3252L10 11.2052" stroke="#588157" stroke-width="2" stroke-linecap="round" stroke-linejoin="round"/>
</svg>
