<svg width="24" height="25" viewBox="0 0 24 25" fill="none" xmlns="http://www.w3.org/2000/svg">
<path d="M19 8.3252C19.5304 8.3252 20.0391 8.11448 20.4142 7.73941C20.7893 7.36434 21 6.85563 21 6.3252C21 5.79476 20.7893 5.28605 20.4142 4.91098C20.0391 4.53591 19.5304 4.3252 19 4.3252H5C4.46957 4.3252 3.96086 4.53591 3.58579 4.91098C3.21071 5.28605 3 5.79476 3 6.3252C3 6.85563 3.21071 7.36434 3.58579 7.73941C3.96086 8.11448 4.46957 8.3252 5 8.3252M19 8.3252H5M19 8.3252V18.3252C19 18.8556 18.7893 19.3643 18.4142 19.7394C18.0391 20.1145 17.5304 20.3252 17 20.3252H7C6.46957 20.3252 5.96086 20.1145 5.58579 19.7394C5.21071 19.3643 5 18.8556 5 18.3252V8.3252M10 12.3252H14" stroke="#588157" stroke-width="2" stroke-linecap="round" stroke-linejoin="round"/>
</svg>
