<svg width="24" height="25" viewBox="0 0 24 25" fill="none" xmlns="http://www.w3.org/2000/svg">
<path d="M7 4.3252C6.46957 4.3252 5.96086 4.53591 5.58579 4.91098C5.21071 5.28605 5 5.79476 5 6.3252V9.3252C5 10.1208 4.78929 10.8839 4.41421 11.4465C4.03914 12.0091 3.53043 12.3252 3 12.3252C3.53043 12.3252 4.03914 12.6413 4.41421 13.2039C4.78929 13.7665 5 14.5295 5 15.3252V18.3252C5 18.8556 5.21071 19.3643 5.58579 19.7394C5.96086 20.1145 6.46957 20.3252 7 20.3252M17 4.3252C17.5304 4.3252 18.0391 4.53591 18.4142 4.91098C18.7893 5.28605 19 5.79476 19 6.3252V9.3252C19 10.1208 19.2107 10.8839 19.5858 11.4465C19.9609 12.0091 20.4696 12.3252 21 12.3252C20.4696 12.3252 19.9609 12.6413 19.5858 13.2039C19.2107 13.7665 19 14.5295 19 15.3252V18.3252C19 18.8556 18.7893 19.3643 18.4142 19.7394C18.0391 20.1145 17.5304 20.3252 17 20.3252" stroke="#588157" stroke-width="2" stroke-linecap="round" stroke-linejoin="round"/>
</svg>
