<svg width="24" height="25" viewBox="0 0 24 25" fill="none" xmlns="http://www.w3.org/2000/svg">
<path d="M6.75 16.3252C7.59393 17.0582 8.58187 17.6066 9.65035 17.9352C10.7188 18.2637 11.8442 18.3651 12.9542 18.2328C14.0642 18.1006 15.1342 17.7376 16.0956 17.1672C17.057 16.5968 17.8884 15.8317 18.5365 14.9209C19.1845 14.0101 19.6349 12.9738 19.8587 11.8785C20.0825 10.7833 20.0747 9.65341 19.8358 8.56139C19.5969 7.46937 19.1323 6.43939 18.4717 5.53763C17.8111 4.63586 16.9692 3.88224 16 3.3252M12 18.3252V22.3252M8 22.3252H16M8 10.3252C8 11.3861 8.42143 12.4035 9.17157 13.1536C9.92172 13.9038 10.9391 14.3252 12 14.3252C13.0609 14.3252 14.0783 13.9038 14.8284 13.1536C15.5786 12.4035 16 11.3861 16 10.3252C16 9.26433 15.5786 8.24691 14.8284 7.49677C14.0783 6.74662 13.0609 6.3252 12 6.3252C10.9391 6.3252 9.92172 6.74662 9.17157 7.49677C8.42143 8.24691 8 9.26433 8 10.3252Z" stroke="#588157" stroke-width="2" stroke-linecap="round" stroke-linejoin="round"/>
</svg>
