<svg width="24" height="25" viewBox="0 0 24 25" fill="none" xmlns="http://www.w3.org/2000/svg">
<path d="M14.5 5.8252L18.5 9.8252M12 8.3252L7 3.3252L3 7.3252L8 12.3252M7 8.3252L5.5 9.8252M16 12.3252L21 17.3252L17 21.3252L12 16.3252M16 17.3252L14.5 18.8252M3 21.3252H7L20 8.32519C20.5304 7.79476 20.8284 7.07534 20.8284 6.32519C20.8284 5.57505 20.5304 4.85563 20 4.32519C19.4696 3.79476 18.7501 3.49677 18 3.49677C17.2499 3.49677 16.5304 3.79476 16 4.32519L3 17.3252V21.3252Z" stroke="#588157" stroke-width="2" stroke-linecap="round" stroke-linejoin="round"/>
</svg>
